<?xml version="1.0" encoding="UTF-8"?>
<svg width="901px" height="168px" viewBox="0 0 901 168" version="1.1" xmlns="http://www.w3.org/2000/svg" xmlns:xlink="http://www.w3.org/1999/xlink">
    <!-- Generator: Sketch 60 (88103) - https://sketch.com -->
    <title>Group 15</title>
    <desc>Created with Sketch.</desc>
    <defs>
        <polygon id="path-1" points="0.1884 0.376 173.3994 0.376 173.3994 167.9996 0.1884 167.9996"></polygon>
        <polygon id="path-3" points="0 0.3761 146.9198 0.3761 146.9198 103.3561 0 103.3561"></polygon>
    </defs>
    <g id="Page-1" stroke="none" stroke-width="1" fill="none" fill-rule="evenodd">
        <g id="Group-15" transform="translate(0.000000, -1.000000)">
            <g id="Group-3" transform="translate(194.000000, 0.624000)">
                <mask id="mask-2" fill="white">
                    <use xlink:href="#path-1"></use>
                </mask>
                <g id="Clip-2"></g>
                <path d="M86.9164,37.3026 C59.9504,37.3026 42.7024,57.7086 42.7024,84.1876 C42.7024,110.4256 59.9504,131.0726 86.9164,131.0726 C113.6374,131.0726 130.8864,110.4256 130.8864,84.1876 C130.8864,57.7086 113.6374,37.3026 86.9164,37.3026 M86.9164,0.3756 C136.4734,0.3756 173.3994,34.8706 173.3994,84.1876 C173.3994,133.5026 136.4734,167.9996 86.9164,167.9996 C37.3574,167.9996 0.1884,133.5026 0.1884,84.1876 C0.1884,34.8706 37.3574,0.3756 86.9164,0.3756" id="Fill-1" fill="#2B003B" mask="url(#mask-2)"></path>
            </g>
            <polygon id="Fill-4" fill="#2B003B" points="378.5639 3.6707 425.9349 3.6707 465.7749 120.5237 505.8589 3.6707 553.2339 3.6707 492.0119 165.7087 439.5379 165.7087"></polygon>
            <path d="M652.0932,38.8968 L619.0542,38.8968 L619.0542,75.3368 L652.0932,75.3368 C663.0272,75.3368 672.2572,68.2918 672.2572,57.1178 C672.2572,45.9418 663.0272,38.8968 652.0932,38.8968 L652.0932,38.8968 Z M640.4332,110.8048 L619.0542,110.8048 L619.0542,165.7088 L577.2692,165.7088 L577.2692,3.6708 L658.4102,3.6708 C694.3642,3.6708 714.7702,27.4788 714.7702,57.6018 C714.7702,85.7848 697.5222,100.8458 682.4602,106.1908 L715.5012,165.7088 L667.6412,165.7088 L640.4332,110.8048 Z" id="Fill-6" fill="#2B003B"></path>
            <polygon id="Fill-8" fill="#2B003B" points="791.769 67.8074 791.769 165.7084 749.984 165.7084 749.984 3.6704 792.984 3.6704 858.577 96.9574 858.577 3.6704 900.604 3.6704 900.604 165.7084 860.278 165.7084"></polygon>
            <path d="M100.8959,73.827 L88.4419,104.014 L127.2899,104.014 C122.0109,121.337 106.6019,134.201 87.3999,134.201 C83.9659,134.201 80.6179,133.876 77.4059,133.244 L64.5419,165.805 C71.8019,167.65 79.4559,168.624 87.3999,168.624 C132.1419,168.624 167.1969,131.672 167.1969,84.385 L167.1969,73.827 L100.8959,73.827 Z" id="Fill-10" fill="#AB076D"></path>
            <g id="Group-14" transform="translate(0.000000, 0.624000)">
                <mask id="mask-4" fill="white">
                    <use xlink:href="#path-3"></use>
                </mask>
                <g id="Clip-13"></g>
                <path d="M87.3998,34.7821 C100.8958,34.7821 113.5718,40.0611 122.8658,49.3541 L146.9198,22.5501 C132.1418,9.2421 110.4118,0.3761 87.3998,0.3761 C38.2158,0.3761 -0.0002,37.7381 -0.0002,83.9831 C-0.0002,90.6451 0.7858,97.1201 2.2728,103.3221 L41.5818,103.3561 C39.1218,97.4271 37.7888,90.8851 37.7888,83.9831 C37.7888,56.7521 59.3148,34.7821 87.3998,34.7821" id="Fill-12" fill="#AB076D" mask="url(#mask-4)"></path>
            </g>
        </g>
    </g>
</svg>